<svg xmlns="http://www.w3.org/2000/svg" viewBox="0 0 128 128" width="128" height="128">
  <!-- Background circle -->
  <circle cx="64" cy="64" r="60" fill="#FEF3C7" stroke="#F59E0B" stroke-width="3"/>
  <!-- Body -->
  <ellipse cx="64" cy="82" rx="28" ry="22" fill="#F8F9FA" stroke="#374151" stroke-width="2"/>
  <!-- Neck -->
  <path d="M56 64 Q52 44 46 34 Q42 26 48 22" fill="none" stroke="#F8F9FA" stroke-width="11"/>
  <path d="M56 64 Q52 44 46 34 Q42 26 48 22" fill="none" stroke="#374151" stroke-width="2"/>
  <!-- Head -->
  <circle cx="48" cy="22" r="10" fill="#F8F9FA" stroke="#374151" stroke-width="2"/>
  <!-- Eye -->
  <circle cx="45" cy="20" r="2.5" fill="#374151"/>
  <circle cx="44.5" cy="19.5" r="0.8" fill="#FFFFFF"/>
  <!-- Beak -->
  <path d="M38 23 L30 25 L38 27 Z" fill="#F59E0B" stroke="#D97706" stroke-width="1"/>
  <!-- Wing -->
  <path d="M59 69 Q76 64 84 74 Q79 84 62 82" fill="#E5E7EB" stroke="#374151" stroke-width="1.5"/>
  <!-- Feet -->
  <path d="M52 102 L46 110 L56 110 Z" fill="#F59E0B" stroke="#D97706" stroke-width="1"/>
  <path d="M72 102 L66 110 L76 110 Z" fill="#F59E0B" stroke="#D97706" stroke-width="1"/>
  <!-- Clipboard -->
  <rect x="74" y="56" width="16" height="22" rx="2" fill="#FEF3C7" stroke="#D97706" stroke-width="1.5"/>
  <rect x="78" y="54" width="8" height="4" rx="1" fill="none" stroke="#D97706" stroke-width="1.5"/>
  <line x1="78" y1="64" x2="86" y2="64" stroke="#D97706" stroke-width="1" opacity="0.5"/>
  <line x1="78" y1="68" x2="86" y2="68" stroke="#D97706" stroke-width="1" opacity="0.5"/>
  <line x1="78" y1="72" x2="83" y2="72" stroke="#D97706" stroke-width="1" opacity="0.5"/>
</svg>
